<svg width="20" height="21" viewBox="0 0 20 21" fill="none" xmlns="http://www.w3.org/2000/svg">
<g clip-path="url(#clip0_3_263)">
<path fill-rule="evenodd" clip-rule="evenodd" d="M10.0078 0.86441C4.77023 0.86441 0.53614 5.12972 0.53614 10.4065C0.53614 14.6245 3.24907 18.1949 7.01262 19.4586C7.48316 19.5536 7.65552 19.2533 7.65552 19.0007C7.65552 18.7795 7.64001 18.0212 7.64001 17.2312C5.00521 17.8 4.45654 16.0937 4.45654 16.0937C4.03311 14.9878 3.40572 14.7036 3.40572 14.7036C2.54335 14.119 3.46854 14.119 3.46854 14.119C4.42513 14.1822 4.92708 15.0985 4.92708 15.0985C5.77374 16.5518 7.13806 16.1412 7.68692 15.8884C7.76525 15.2722 8.01632 14.8457 8.2829 14.6088C6.18147 14.3876 3.97049 13.5661 3.97049 9.90085C3.97049 8.85818 4.34661 8.00512 4.94259 7.34167C4.84856 7.10475 4.51916 6.12508 5.03681 4.81389C5.03681 4.81389 5.83656 4.56107 7.63981 5.79336C8.41185 5.58449 9.20804 5.47823 10.0078 5.47734C10.8076 5.47734 11.6228 5.58804 12.3757 5.79336C14.1791 4.56107 14.9789 4.81389 14.9789 4.81389C15.4965 6.12508 15.1669 7.10475 15.0729 7.34167C15.6846 8.00512 16.0452 8.85818 16.0452 9.90085C16.0452 13.5661 13.8342 14.3717 11.7171 14.6088C12.0622 14.9089 12.36 15.4775 12.36 16.3781C12.36 17.6577 12.3444 18.6847 12.3444 19.0005C12.3444 19.2533 12.517 19.5536 12.9873 19.4588C16.7509 18.1947 19.4638 14.6245 19.4638 10.4065C19.4793 5.12972 15.2297 0.86441 10.0078 0.86441Z" fill="white"/>
</g>
<defs>
<clipPath id="clip0_3_263">
<rect width="20" height="20" fill="white" transform="translate(0 0.170563)"/>
</clipPath>
</defs>
</svg>
