<svg width="55" height="42" viewBox="0 0 55 42" fill="none" xmlns="http://www.w3.org/2000/svg">
<g filter="url(#filter0_i_1_3)">
<path d="M49.5495 27.0033C49.5495 22.8847 48.457 18.8541 47.013 14.9929C46.561 13.8188 45.9897 12.6699 45.4309 11.5273C44.8909 10.3909 44.3573 9.20427 44.3447 7.95488C44.3259 6.44809 45.299 4.98524 45.3869 3.52867C45.5313 2.22905 44.6084 1.18057 43.3402 0.879213C42.2164 0.584131 40.9733 0.734811 39.906 1.16802C38.4243 1.75818 37.3883 2.86944 35.3039 2.86944C33.7658 2.86944 30.8149 1.7519 27.5063 1.7519C24.1976 1.7519 21.2468 2.86944 19.7086 2.86944C17.6242 2.86944 16.5883 1.75818 15.1066 1.16802C14.033 0.728533 12.7962 0.577853 11.6723 0.879213C10.4041 1.18057 9.4812 2.22905 9.6256 3.52867C9.71977 4.99152 10.6866 6.44809 10.6678 7.95488C10.6552 9.20427 10.1216 10.3846 9.58165 11.5273C9.02916 12.6636 8.45155 13.8188 7.99951 14.9929C6.56178 18.8541 5.46307 22.8847 5.46307 27.0033C5.46307 31.5551 -1.12917 30.8017 0.339956 36.8666C1.1373 40.1501 5.46307 39.5537 8.552 38.2541C11.1512 37.1617 12.7145 35.3912 13.9074 35.3912C16.042 35.3912 17.4986 41.6193 20.8073 41.6193C24.116 41.6193 24.9447 37.0424 27.5 37.0424C30.0553 37.0424 30.8024 41.6193 34.1927 41.6193C37.583 41.6193 38.9579 35.3912 41.0926 35.3912C42.2917 35.3912 43.8487 37.1617 46.448 38.2541C49.5432 39.5537 53.8627 40.1501 54.66 36.8666C56.1291 30.8017 49.5369 31.5551 49.5369 27.0033H49.5495ZM20.4243 17.906C19.2126 19.7832 16.2869 19.3124 16.2053 17.0145V16.9957C16.1802 15.853 17.191 14.8673 18.3336 14.6664C20.4432 14.2332 21.5105 16.2611 20.4306 17.906H20.4243ZM38.8261 16.9957V17.0145C38.7445 19.3061 35.8125 19.777 34.6071 17.906C33.5272 16.2611 34.5945 14.2332 36.704 14.6664C37.8467 14.8673 38.8575 15.853 38.8324 16.9894L38.8261 16.9957Z" fill="white" fill-opacity="0.01"/>
</g>
<path d="M11.8022 1.36249C12.8005 1.09486 13.9244 1.22453 14.9174 1.63104L14.9213 1.633C15.2616 1.76853 15.5822 1.93577 15.9155 2.1203C16.2411 2.3006 16.5933 2.50552 16.9584 2.68769C17.7084 3.06183 18.5659 3.3693 19.7084 3.36933C20.1437 3.36933 20.6566 3.29131 21.2055 3.18573C21.7535 3.0803 22.3874 2.9368 23.0453 2.79999C24.3809 2.52227 25.9049 2.25214 27.5063 2.25214C29.1076 2.25214 30.6317 2.52227 31.9672 2.79999C32.6251 2.9368 33.259 3.0803 33.8071 3.18573C34.3559 3.29131 34.8689 3.36933 35.3041 3.36933C36.4466 3.36929 37.3041 3.06183 38.0541 2.68769C38.4193 2.50551 38.7715 2.30061 39.0971 2.1203C39.4304 1.93577 39.751 1.76853 40.0912 1.633L40.0942 1.63104C41.0813 1.23045 42.2131 1.09985 43.2133 1.36249L43.225 1.36542C44.304 1.62196 45.0006 2.47911 44.8901 3.47382L44.8881 3.49823C44.8492 4.14359 44.613 4.80098 44.353 5.56073C44.1039 6.28854 43.8349 7.1082 43.8452 7.95917V7.96015C43.859 9.3349 44.4444 10.6164 44.9789 11.7414L44.9819 11.7473C45.543 12.8946 46.1023 14.0199 46.5444 15.1672V15.1682C47.9668 18.9717 49.0293 22.9031 49.0473 26.9006C49.0404 26.9337 49.0366 26.968 49.0366 27.0031C49.0366 29.5778 50.9606 30.6876 52.3422 31.7619C53.0633 32.3226 53.6703 32.8807 54.0287 33.6242C54.3793 34.3514 54.5204 35.3186 54.1743 36.7482C54.0026 37.4552 53.6517 37.9263 53.1938 38.2385C52.7252 38.5579 52.1096 38.7347 51.3842 38.7805C49.9249 38.8726 48.1527 38.4274 46.642 37.7932C45.3944 37.2688 44.3948 36.581 43.5239 35.9973C43.0955 35.7101 42.6831 35.4387 42.2983 35.2404C41.9163 35.0436 41.5095 34.8908 41.0922 34.8908C40.3119 34.891 39.6947 35.4536 39.2055 36.0461C38.7015 36.6566 38.1974 37.475 37.6967 38.2287C37.1811 39.0049 36.6536 39.7376 36.0639 40.2766C35.4798 40.8102 34.8729 41.1193 34.1928 41.1193C32.7586 41.1193 31.8601 40.1708 30.9213 39.0158C30.4728 38.4639 30 37.8475 29.4789 37.384C28.9448 36.9089 28.3058 36.5423 27.5004 36.5422C26.6958 36.5422 26.0511 36.908 25.5112 37.382C24.9836 37.8453 24.5048 38.4607 24.0502 39.0139C23.0968 40.1742 22.1993 41.1193 20.8071 41.1193C20.1506 41.1193 19.5548 40.8132 18.9721 40.2775C18.3847 39.7376 17.8538 39.0038 17.3325 38.2267C16.8259 37.4716 16.3151 36.6539 15.8041 36.0432C15.3088 35.4511 14.6862 34.8909 13.9077 34.8908C13.4914 34.8908 13.0849 35.0437 12.7036 35.2404C12.3192 35.4386 11.9076 35.7102 11.4789 35.9973C10.7163 36.508 9.8543 37.0982 8.81488 37.5891L8.35785 37.7932C6.85081 38.4272 5.07874 38.8725 3.61859 38.7805C2.8928 38.7347 2.2762 38.5579 1.80707 38.2385C1.34866 37.9262 0.997258 37.455 0.825623 36.7482C0.479442 35.3187 0.620559 34.3514 0.97113 33.6242C1.32959 32.8807 1.9366 32.3226 2.65765 31.7619C4.03924 30.6876 5.96332 29.5779 5.96332 27.0031C5.96335 22.9706 7.03942 19.0043 8.4682 15.1672L8.46722 15.1662C8.90938 14.019 9.47589 12.8894 10.0317 11.7463L10.0336 11.7404C10.5674 10.6108 11.1535 9.33504 11.1674 7.96015L11.1664 7.95917C11.1767 7.10859 10.911 6.29114 10.6625 5.56366C10.4034 4.80474 10.1663 4.14627 10.1245 3.49628L10.1225 3.47382L10.1108 3.28827C10.1004 2.37379 10.7761 1.60588 11.7875 1.36542C11.7922 1.36431 11.7976 1.36373 11.8022 1.36249ZM21.0063 15.2492C20.5228 14.4447 19.5992 13.9818 18.4633 14.1369L18.2475 14.174C17.0081 14.3919 15.8305 15.4172 15.7143 16.7385L15.7055 16.9953V17.0324C15.7554 18.4352 16.6961 19.3068 17.7973 19.5168C18.8571 19.7189 20.0683 19.3122 20.7963 18.2453C20.8151 18.2251 20.8337 18.2043 20.8491 18.1808C21.4832 17.2149 21.5108 16.0891 21.0063 15.2492ZM36.7895 14.174C35.5553 13.926 34.5443 14.3943 34.0307 15.2492C33.5263 16.0889 33.5551 17.214 34.1889 18.1799C34.9088 19.2945 36.1509 19.7178 37.2319 19.5119C38.3159 19.3052 39.2457 18.4589 39.3207 17.0939C39.3273 17.0634 39.3318 17.0319 39.3325 17.0002C39.3642 15.5567 38.1116 14.4063 36.7905 14.174H36.7895Z" stroke="#1DED83" stroke-miterlimit="16" stroke-linecap="round" stroke-linejoin="round"/>
<defs>
<filter id="filter0_i_1_3" x="0.126404" y="0.721865" width="54.7472" height="40.8974" filterUnits="userSpaceOnUse" color-interpolation-filters="sRGB">
<feFlood flood-opacity="0" result="BackgroundImageFix"/>
<feBlend mode="normal" in="SourceGraphic" in2="BackgroundImageFix" result="shape"/>
<feColorMatrix in="SourceAlpha" type="matrix" values="0 0 0 0 0 0 0 0 0 0 0 0 0 0 0 0 0 0 127 0" result="hardAlpha"/>
<feOffset/>
<feGaussianBlur stdDeviation="14"/>
<feComposite in2="hardAlpha" operator="arithmetic" k2="-1" k3="1"/>
<feColorMatrix type="matrix" values="0 0 0 0 0.113725 0 0 0 0 0.929412 0 0 0 0 0.513726 0 0 0 0.4 0"/>
<feBlend mode="normal" in2="shape" result="effect1_innerShadow_1_3"/>
</filter>
</defs>
</svg>
