<svg width="57" height="19" viewBox="0 0 57 19" fill="none" xmlns="http://www.w3.org/2000/svg">
<g clip-path="url(#clip0_3_283)">
<path d="M21.3619 4.47168H23.2408V13.1903H28.5309V14.8155H21.3619V4.47168Z" fill="white"/>
<path d="M29.9326 5.3067C29.7112 5.09528 29.6005 4.83153 29.6005 4.51652C29.6005 4.20152 29.7112 3.93777 29.9326 3.72635C30.1541 3.51492 30.4287 3.40814 30.7567 3.40814C31.0846 3.40814 31.3593 3.50958 31.5808 3.7114C31.8022 3.91321 31.9129 4.16735 31.9129 4.47274C31.9129 4.79736 31.8043 5.07072 31.5881 5.29282C31.3719 5.51492 31.094 5.62491 30.7567 5.62491C30.4193 5.62491 30.1541 5.51919 29.9326 5.3067ZM29.8459 6.92443H31.6528V14.8155H29.8459V6.92443Z" fill="white"/>
<path d="M41.5677 6.92444V14.8155H39.8475V13.7958C39.5488 14.1706 39.1801 14.4514 38.7415 14.6383C38.3028 14.8251 37.8182 14.9191 37.2887 14.9191C36.5377 14.9191 35.8651 14.7515 35.2729 14.4162C34.6807 14.0809 34.218 13.6089 33.8848 12.9981C33.5527 12.3873 33.3866 11.6783 33.3866 10.87C33.3866 10.0617 33.5527 9.35584 33.8848 8.74932C34.2169 8.14388 34.6796 7.67298 35.2729 7.33768C35.8651 7.00239 36.5377 6.83582 37.2887 6.83582C37.79 6.83582 38.2495 6.92444 38.6694 7.1017C39.0882 7.27896 39.4517 7.54057 39.7609 7.8844V6.92444H41.5677ZM39.1394 12.6586C39.5729 12.2058 39.7901 11.61 39.7901 10.8711C39.7901 10.1321 39.5729 9.5363 39.1394 9.08355C38.706 8.6308 38.1566 8.40335 37.4913 8.40335C36.826 8.40335 36.2797 8.62973 35.8505 9.08355C35.4212 9.5363 35.2071 10.1321 35.2071 10.8711C35.2071 11.61 35.4212 12.2058 35.8505 12.6586C36.2787 13.1113 36.826 13.3388 37.4913 13.3388C38.1566 13.3388 38.7049 13.1124 39.1394 12.6586Z" fill="white"/>
<path d="M55.9915 7.70074C56.5597 8.27735 56.8448 9.14121 56.8448 10.2944V14.8166H55.0379V10.5315C55.0379 9.84169 54.8886 9.32273 54.5899 8.97249C54.2911 8.62332 53.8619 8.4482 53.3031 8.4482C52.6963 8.4482 52.2096 8.65322 51.843 9.06112C51.4764 9.47009 51.2936 10.0531 51.2936 10.8123V14.8166H49.4867V10.5315C49.4867 9.84169 49.3373 9.32273 49.0386 8.97249C48.7399 8.62332 48.3107 8.4482 47.7519 8.4482C47.1357 8.4482 46.6458 8.65002 46.2844 9.05365C45.9231 9.45728 45.7424 10.0435 45.7424 10.8123V14.8166H43.9355V6.92444H45.6557V7.92925C45.945 7.57474 46.3064 7.30351 46.7398 7.11665C47.1733 6.92978 47.6547 6.83582 48.1853 6.83582C48.7639 6.83582 49.2768 6.94687 49.7248 7.1679C50.1729 7.39001 50.527 7.71676 50.787 8.15028C51.1045 7.73704 51.515 7.41457 52.0153 7.18285C52.5166 6.95114 53.0702 6.83582 53.677 6.83582C54.6504 6.83582 55.4212 7.12412 55.9894 7.69967L55.9915 7.70074Z" fill="white"/>
<path d="M8.80257 18.1695C13.6641 18.1695 17.6051 14.1403 17.6051 9.17003C17.6051 4.19976 13.6641 0.170563 8.80257 0.170563C3.94104 0.170563 0 4.19976 0 9.17003C0 14.1403 3.94104 18.1695 8.80257 18.1695Z" fill="#1DED83"/>
<path d="M5.42416 13.343C5.3239 13.3398 5.32077 13.3387 5.3521 13.2426C5.45132 12.9351 6.60334 9.38252 7.08274 7.91429C7.11512 7.81605 7.09423 7.74451 7.0347 7.6783C6.63676 7.22769 6.36521 6.69699 6.12185 6.15134C5.9537 5.77227 5.82105 5.37718 5.72601 4.97035C5.70721 4.89133 5.73228 4.86784 5.78763 4.85075C6.08948 4.75465 6.39236 4.66282 6.69421 4.56351C6.75896 4.54216 6.78612 4.5475 6.81119 4.61904C6.89996 4.87211 6.9877 5.12625 7.09319 5.37184C7.1945 5.60783 7.31461 5.83527 7.43158 6.06485C7.4859 6.17163 7.54647 6.27627 7.61123 6.37665C7.67494 6.47702 7.67912 6.47488 7.74701 6.37131C7.76789 6.33927 7.78356 6.30404 7.80236 6.27093C8.00394 5.92603 8.23581 5.60462 8.51572 5.32165C8.91052 4.9223 9.36903 4.64253 9.91318 4.51439C10.1231 4.46527 10.3341 4.44392 10.5503 4.44178C10.8688 4.43858 11.1822 4.45887 11.4903 4.54429C11.8266 4.63719 12.1264 4.80163 12.4 5.02267C12.7186 5.28001 12.9233 5.6153 13.0559 5.99864C13.1071 6.146 13.1175 6.30831 13.1426 6.46421C13.1499 6.51226 13.1405 6.56351 13.1447 6.61263C13.1635 6.88492 13.1196 7.14974 13.0434 7.40708C12.9703 7.65588 12.8502 7.88439 12.6977 8.09154C12.3885 8.51012 11.9895 8.80377 11.506 8.98102C11.2375 9.07926 10.9628 9.13692 10.6819 9.18177C10.3748 9.23196 10.0678 9.22342 9.76487 9.20206C9.37634 9.17323 8.99303 9.08353 8.63165 8.92016C8.55332 8.88492 8.47394 8.85075 8.39561 8.81551C8.29952 8.77173 8.29012 8.77387 8.25669 8.87211C8.19298 9.05897 7.29163 11.9367 7.28432 11.957C7.26865 11.9965 7.27492 12.02 7.32192 12.02C7.36474 12.02 10.449 12.02 11.9467 12.02C12.1358 12.02 12.1681 11.9837 12.1086 12.2239C12.0292 12.5475 11.9561 12.8721 11.8788 13.1967C11.8444 13.3419 11.8433 13.343 11.696 13.343C10.6558 13.343 5.45341 13.343 5.42103 13.343H5.42416ZM10.7717 5.73383C10.756 5.73383 10.7393 5.7349 10.7237 5.73383C10.3759 5.70713 10.0542 5.78401 9.77009 5.99651C9.62805 6.10222 9.4954 6.21541 9.37738 6.35422C9.08285 6.70019 8.89172 7.10062 8.71521 7.51386C8.69536 7.56084 8.69118 7.59181 8.7434 7.61957C8.88127 7.69218 9.01392 7.77974 9.15596 7.84381C9.392 7.95059 9.63849 8.02961 9.89647 8.04563C10.049 8.05524 10.2025 8.05951 10.3571 8.05417C10.6923 8.04136 11.0036 7.95807 11.2845 7.7744C11.6532 7.53201 11.8527 7.18498 11.8506 6.73009C11.8496 6.47595 11.7504 6.24958 11.5801 6.08086C11.3618 5.8641 11.0934 5.72315 10.7728 5.7349L10.7717 5.73383Z" fill="black"/>
</g>
<defs>
<clipPath id="clip0_3_283">
<rect width="57" height="18" fill="white" transform="translate(0 0.170563)"/>
</clipPath>
</defs>
</svg>
